<?xml version="1.0" encoding="utf-8" ?>
<svg baseProfile="full" height="200mm" version="1.1" viewBox="0,0,200,200" width="200mm" xmlns="http://www.w3.org/2000/svg" xmlns:ev="http://www.w3.org/2001/xml-events" xmlns:xlink="http://www.w3.org/1999/xlink"><defs /><rect fill="#1a1a1a" height="200" width="200" x="0" y="0" /><text alignment-baseline="middle" fill="#e1ed5e" style="dominant-baseline: central; font-size:9.0px; font-family:Arial;" text-anchor="middle" x="100.0" y="100.0">2025</text><line stroke="#e1ed5e" stroke-width="0.3" x1="100.0" x2="100.0" y1="15.0" y2="10.0" /><path d="M 100.0 14.0 a86.0,86.0 0 0,1 42.46469731375804,11.215312516191453" fill="none" id="id73" stroke="none" /><text fill="#e1ed5e" style="font-size:6.75px; font-family:Arial;" text-anchor="middle"><textPath startOffset="22.20632615414155" xlink:href="#id73">January</textPath></text><path d="M 106.0581310904928 79.89281104454417 l 13.031101501722908 -43.250767650779444 a66.17121327493777,66.17121327493777 0 0,0 1.0877747965708198,0.33797692431094234 l -13.773661671004447 43.02005059158598" fill="red" stroke="none" /><line stroke="#e1ed5e" stroke-width="0.3" x1="143.23703022742887" x2="145.7803849466894" y1="26.81831364943548" y2="22.513508569990506" /><path d="M 143.74570117128098 25.957352633546492 a86.0,86.0 0 0,1 28.547481713284135,27.462654790039103" fill="none" id="id74" stroke="none" /><text fill="#e1ed5e" style="font-size:6.75px; font-family:Arial;" text-anchor="middle"><textPath startOffset="19.985693538727396" xlink:href="#id74">February</textPath></text><path d="M 114.68862486808459 84.99185889309783 l 17.07748522096574 -17.44896545790214 a45.41530046965151,45.41530046965151 0 0,0 0.5539892430937572,0.5516102372267109 l -17.375310264226822 17.15241937002531" fill="red" stroke="none" /><path d="M 114.94478906791727 85.2469230424477 l 27.76940861151478 -27.413181975976016 a60.020797027754924,60.020797027754924 0 0,0 0.7194942634718157,0.7415020838389955 l -28.237167138689703 26.931115696586907" fill="red" stroke="none" /><path d="M 117.2510076193507 88.02491185347247 l 22.940309048612743 -15.924416070489247 a48.92570153876031,48.92570153876031 0 0,0 0.4742893253945335,0.6959610607876474 l -23.21102283967601 15.527176986431193" fill="red" stroke="none" /><line stroke="#e1ed5e" stroke-width="0.3" x1="172.23445277983987" x2="176.4835382374775" y1="55.19839476539836" y2="52.563006222186495" /><path d="M 173.08426987136738 54.67131705675599 a86.0,86.0 0 0,1 12.851231095245387,41.99856678651699" fill="none" id="id75" stroke="none" /><text fill="#e1ed5e" style="font-size:6.75px; font-family:Arial;" text-anchor="middle"><textPath startOffset="22.20632615414155" xlink:href="#id75">March</textPath></text><path d="M 118.3937258080291 89.86733742301442 l 34.68538336691213 -19.107346150440822 a60.600082022925534,60.600082022925534 0 0,0 0.495454441430144,0.9180018334812103 l -35.009145907560736 18.507463333627154" fill="red" stroke="none" /><path d="M 118.73160827565052 90.50648371742162 l 35.06987967344766 -17.774046350346172 a60.31683079769211,60.31683079769211 0 0,0 0.4613949960967969,0.930144157426849 l -35.37063468249786 17.167742604420376" fill="red" stroke="none" /><path d="M 119.47837535516314 92.15188598940014 l 36.5305696372113 -14.718685216680404 a60.38428890467454,60.38428890467454 0 0,0 0.3801520228097545,0.9674454328875332 l -36.77851520990275 14.087690778897088" fill="red" stroke="none" /><path d="M 120.28053869075195 94.5502522615342 l 38.0877423686199 -10.234865602031899 a60.43892230563633,60.43892230563633 0 0,0 0.26133694491226483,1.0070378547960699 l -38.25827564540246 9.57773132168698" fill="red" stroke="none" /><path d="M 120.45610955862082 95.25157060432595 l 37.64974772699788 -8.739548853816485 a59.650785478109334,59.650785478109334 0 0,0 0.22356436366021665,1.0021952057223318 l -37.79460647766014 8.09017547854419" fill="red" stroke="none" /><path d="M 120.78858239683441 97.02765380044208 l 31.24217597851064 -4.466998338943317 a52.55990548199328,52.55990548199328 0 0,0 0.12034716879600979,0.8967261941434805 l -31.31443914636449 3.9285538027351725" fill="red" stroke="none" /><line stroke="#e1ed5e" stroke-width="0.3" x1="184.98032266829074" x2="189.97916517819016" y1="98.17113171792111" y2="98.06355123074" /><path d="M 185.9800911702706 98.14961562048488 a86.0,86.0 0 0,1 -9.607161424134198,41.387399972396054" fill="none" id="id76" stroke="none" /><text fill="#e1ed5e" style="font-size:6.75px; font-family:Arial;" text-anchor="middle"><textPath startOffset="21.466115282336823" xlink:href="#id76">April</textPath></text><path d="M 120.89721153311464 102.0752229133903 l 39.275032112736085 3.900254655284233 a60.46821675516284,60.46821675516284 0 0,0 -0.11177319079861686,1.0348809290892005 l -39.202076620436415 -4.575731906258224" fill="red" stroke="none" /><path d="M 120.81339534386255 102.79330883721812 l 37.971360815615185 5.096032433686133 a59.31179699198169,59.31179699198169 0 0,0 -0.1445116370954968,1.0107140532647325 l -37.87801512750308 -5.748891958931275" fill="red" stroke="none" /><path d="M 120.64145759157962 103.86396538481128 l 39.85704579089308 7.461015996257627 a61.549363236353784,61.549363236353784 0 0,0 -0.203904444078968,1.0397043674193043 l -39.72271141383845 -8.145984090744877" fill="red" stroke="none" /><path d="M 120.49622156327973 104.57218783832717 l 39.21988542473234 8.748962954265208 a61.18387444615361,61.18387444615361 0 0,0 -0.23814929863831935,1.0259409455876618 l -39.06347556016347 -9.422772557201435" fill="red" stroke="none" /><path d="M 120.32669344350535 105.2749913415812 l 38.193763029384954 9.911684349565617 a60.45890293698289,60.45890293698289 0 0,0 -0.27008409460876853,1.005083389788581 l -38.01749085843441 -10.567658672529747" fill="red" stroke="none" /><path d="M 119.79798401119884 107.00284435728193 l 42.250162214821536 14.944517072695268 a65.81534109782959,65.81534109782959 0 0,0 -0.3869808513927419,1.0648051013705009 l -41.986657102423564 -15.6695699710719" fill="red" stroke="none" /><path d="M 119.67450827220406 107.3425965602758 l 26.288417197660777 9.81093092747548 a49.05949472855778,49.05949472855778 0 0,0 -0.3020796813645105,0.7886347258778437 l -26.11564323670276 -10.261989220186468" fill="red" stroke="none" /><path d="M 119.26925614724726 108.34839909993367 l 57.80776844174181 25.045197299801014 a84.0,84.0 0 0,0 -0.5862356610749084,1.3218066540292492 l -57.368091695935625 -26.036552290322952" fill="red" stroke="none" /><path d="M 118.97047184881838 109.00673069616215 l 35.5697855724516 16.8876916781203 a60.375166995016535,60.375166995016535 0 0,0 -0.4538106424526736,0.9349843377247701 l -35.27382167338421 -17.497464971810345" fill="red" stroke="none" /><line stroke="#e1ed5e" stroke-width="0.3" x1="174.80103733775053" x2="179.2010983576182" y1="140.37084112569926" y2="142.7455964860345" /><path d="M 175.68104954172406 140.8457921977663 a86.0,86.0 0 0,1 -30.038265399797805,32.042727171017184" fill="none" id="id77" stroke="none" /><text fill="#e1ed5e" style="font-size:6.75px; font-family:Arial;" text-anchor="middle"><textPath startOffset="22.206326154141568" xlink:href="#id77">May</textPath></text><path d="M 116.71984013943494 112.70617746262583 l 33.994213381668565 25.833770199219632 a63.696489623205586,63.696489623205586 0 0,0 -0.6709156796091962,0.8672489562386346 l -33.5444908848413 -26.41509714957152" fill="red" stroke="none" /><path d="M 115.80600337817218 113.82643327865902 l 20.840835738716272 18.230694877035734 a48.689324115762204,48.689324115762204 0 0,0 -0.557240388944152,0.6260654842435591 l -20.52393650012378 -18.58673453102016" fill="red" stroke="none" /><path d="M 112.92097659922987 116.55440617244103 l 24.57183387410183 31.481530457834868 a60.93572060078599,60.93572060078599 0 0,0 -0.8324146499482231,0.6382600575986803 l -24.026290495660113 -31.89982985726092" fill="red" stroke="none" /><path d="M 112.63410532772338 116.77436683061366 l 23.890881499301212 31.720046634138246 a60.71064815997792,60.71064815997792 0 0,0 -0.8401631814723866,0.6215326361883572 l -23.341333347410263 -32.12658921906637" fill="red" stroke="none" /><line stroke="#e1ed5e" stroke-width="0.3" x1="143.8653032363475" x2="146.44561519142675" y1="172.8068346515853" y2="177.08958963109032" /><path d="M 144.38136562736335 173.6633856474863 a86.0,86.0 0 0,1 -40.68145358897372,12.25698825130547" fill="none" id="id78" stroke="none" /><text fill="#e1ed5e" style="font-size:6.75px; font-family:Arial;" text-anchor="middle"><textPath startOffset="21.466115282336833" xlink:href="#id78">June</textPath></text><line stroke="#e1ed5e" stroke-width="0.3" x1="102.19456741930631" x2="102.32365962044197" y1="184.97166512339345" y2="189.96999836594603" /><path d="M 102.22038585953345 185.97133177190398 a86.0,86.0 0 0,1 -42.740103519485714,-10.115201625700543" fill="none" id="id79" stroke="none" /><text fill="#e1ed5e" style="font-size:6.75px; font-family:Arial;" text-anchor="middle"><textPath startOffset="22.20632615414155" xlink:href="#id79">July</textPath></text><line stroke="#e1ed5e" stroke-width="0.3" x1="58.666819895761336" x2="56.23545636021788" y1="174.27360380694188" y2="178.64263932499728" /><path d="M 58.180547188652646 175.14741091055294 a86.0,86.0 0 0,1 -31.652253787137756,-30.449443065178592" fill="none" id="id80" stroke="none" /><text fill="#e1ed5e" style="font-size:6.75px; font-family:Arial;" text-anchor="middle"><textPath startOffset="22.20632615414155" xlink:href="#id80">August</textPath></text><line stroke="#e1ed5e" stroke-width="0.3" x1="26.63291911575756" x2="22.317208475507996" y1="142.92168965132927" y2="145.44649492493687" /><path d="M 25.769776987707644 143.4266507060508 a86.0,86.0 0 0,1 -11.730757126820373,-40.83630448921669" fill="none" id="id81" stroke="none" /><text fill="#e1ed5e" style="font-size:6.75px; font-family:Arial;" text-anchor="middle"><textPath startOffset="21.46611528233685" xlink:href="#id81">September</textPath></text><line stroke="#e1ed5e" stroke-width="0.3" x1="15.007084014347285" x2="10.007500721073583" y1="101.09737516637583" y2="101.16192664675087" /><path d="M 14.007167355692545 101.11028546245083 a86.0,86.0 0 0,1 10.666146001902534,-42.60595125391555" fill="none" id="id82" stroke="none" /><text fill="#e1ed5e" style="font-size:6.75px; font-family:Arial;" text-anchor="middle"><textPath startOffset="22.20632615414155" xlink:href="#id82">October</textPath></text><line stroke="#e1ed5e" stroke-width="0.3" x1="26.266209847984243" x2="21.928928074336255" y1="57.711370442889674" y2="55.22380399835377" /><path d="M 25.398753493254645 57.213857153982495 a86.0,86.0 0 0,1 29.58750427330803,-30.492523968695096" fill="none" id="id83" stroke="none" /><text fill="#e1ed5e" style="font-size:6.75px; font-family:Arial;" text-anchor="middle"><textPath startOffset="21.46611528233685" xlink:href="#id83">November</textPath></text><line stroke="#e1ed5e" stroke-width="0.3" x1="56.762969772571076" x2="54.21961505331055" y1="26.818313649435495" y2="22.513508569990535" /><path d="M 56.25429882871897 25.957352633546506 a86.0,86.0 0 0,1 42.265352541879196,-11.944610805530505" fill="none" id="id84" stroke="none" /><text fill="#e1ed5e" style="font-size:6.75px; font-family:Arial;" text-anchor="middle"><textPath startOffset="22.20632615414155" xlink:href="#id84">December</textPath></text></svg>