<?xml version="1.0" encoding="utf-8" ?>
<svg baseProfile="full" height="200mm" version="1.1" viewBox="0,0,200,200" width="200mm" xmlns="http://www.w3.org/2000/svg" xmlns:ev="http://www.w3.org/2001/xml-events" xmlns:xlink="http://www.w3.org/1999/xlink"><defs /><rect fill="#1a1a1a" height="200" width="200" x="0" y="0" /><text alignment-baseline="middle" fill="#e1ed5e" style="dominant-baseline: central; font-size:9.0px; font-family:Arial;" text-anchor="middle" x="100.0" y="100.0">2025</text><line stroke="#e1ed5e" stroke-width="0.3" x1="100.0" x2="100.0" y1="15.0" y2="10.0" /><path d="M 100.0 14.0 a86.0,86.0 0 0,1 42.46469731375804,11.215312516191453" fill="none" id="id73" stroke="none" /><text fill="#e1ed5e" style="font-size:6.75px; font-family:Arial;" text-anchor="middle"><textPath startOffset="22.20632615414155" xlink:href="#id73">January</textPath></text><path d="M 106.0581310904928 79.89281104454417 l 10.191798715244461 -33.82700365876743 a56.32900985850472,56.32900985850472 0 0,0 0.9259808639941898,0.2877067618868755 l -10.772564951949368 33.646556761998035" fill="red" stroke="none" /><line stroke="#e1ed5e" stroke-width="0.3" x1="143.23703022742887" x2="145.7803849466894" y1="26.81831364943548" y2="22.513508569990506" /><path d="M 143.74570117128098 25.957352633546492 a86.0,86.0 0 0,1 28.547481713284135,27.462654790039103" fill="none" id="id74" stroke="none" /><text fill="#e1ed5e" style="font-size:6.75px; font-family:Arial;" text-anchor="middle"><textPath startOffset="19.985693538727396" xlink:href="#id74">February</textPath></text><path d="M 114.68862486808459 84.99185889309783 l 13.356529523742317 -13.647069183881294 a40.095532939099726,40.095532939099726 0 0,0 0.4890971482004402,0.4869968096115056 l -13.58946247211008 13.41513652361967" fill="red" stroke="none" /><path d="M 114.94478906791727 85.2469230424477 l 21.71882576254319 -21.440216148003714 a51.5186870781957,51.5186870781957 0 0,0 0.6175759345085102,0.6364662869682681 l -22.084665960754812 21.06318566548533" fill="red" stroke="none" /><path d="M 117.2510076193507 88.02491185347247 l 17.941922427513116 -12.454698724184764 a42.841064550637356,42.841064550637356 0 0,0 0.4153044098674421,0.6094079756079289 l -18.153651303049294 12.144012725306428" fill="red" stroke="none" /><line stroke="#e1ed5e" stroke-width="0.3" x1="172.23445277983987" x2="176.4835382374775" y1="55.19839476539836" y2="52.563006222186495" /><path d="M 173.08426987136738 54.67131705675599 a86.0,86.0 0 0,1 12.851231095245387,41.99856678651699" fill="none" id="id75" stroke="none" /><text fill="#e1ed5e" style="font-size:6.75px; font-family:Arial;" text-anchor="middle"><textPath startOffset="22.20632615414155" xlink:href="#id75">March</textPath></text><path d="M 118.3937258080291 89.86733742301442 l 27.12790208793306 -14.94411089669178 a51.97175361817772,51.97175361817772 0 0,0 0.4249109126502172,0.7872953883572584 l -27.38112109980174 14.474934525002062" fill="red" stroke="none" /><path d="M 118.73160827565052 90.50648371742162 l 27.42862179013528 -13.90131929631604 a51.75021904774684,51.75021904774684 0 0,0 0.3958645008327783,0.7980386776996105 l -27.663846303921467 13.427121030117478" fill="red" stroke="none" /><path d="M 119.47837535516314 92.15188598940014 l 28.571046940771122 -11.51168050234413 a51.80297893515815,51.80297893515815 0 0,0 0.3261279976462052,0.8299601815284133 l -28.764968488299026 11.018171315919933" fill="red" stroke="none" /><path d="M 120.28053869075195 94.5502522615342 l 29.788932553993124 -8.004825231366423 a51.845708448519574,51.845708448519574 0 0,0 0.22418002399563883,0.8638570812423412 l -29.922308909859066 7.490871724575231" fill="red" stroke="none" /><path d="M 120.45610955862082 95.25157060432595 l 29.44637108862682 -6.835318009637667 a51.22929609802376,51.22929609802376 0 0,0 0.19200157870709925,0.8607054296176969 l -29.559667054335957 6.327434410470006" fill="red" stroke="none" /><path d="M 120.78858239683441 97.02765380044208 l 24.434923552481493 -3.493699126341876 a45.68342404531869,45.68342404531869 0 0,0 0.10460199070649392,0.7794063289104647 l -24.491441542245823 3.072574455366747" fill="red" stroke="none" /><line stroke="#e1ed5e" stroke-width="0.3" x1="184.98032266829074" x2="189.97916517819016" y1="98.17113171792111" y2="98.06355123074" /><path d="M 185.9800911702706 98.14961562048488 a86.0,86.0 0 0,1 -9.607161424134198,41.387399972396054" fill="none" id="id76" stroke="none" /><text fill="#e1ed5e" style="font-size:6.75px; font-family:Arial;" text-anchor="middle"><textPath startOffset="21.466115282336823" xlink:href="#id76">April</textPath></text><path d="M 120.89721153311464 102.0752229133903 l 30.717527737378532 3.050441313775081 a51.86862002917211,51.86862002917211 0 0,0 -0.09587716446899544,0.8877034674878397 l -30.660468271408487 -3.5787411031477125" fill="red" stroke="none" /><path d="M 120.81339534386255 102.79330883721812 l 29.697908985322826 3.98567510226357 a50.96416867061928,50.96416867061928 0 0,0 -0.12417285972296334,0.8684646916921558 l -29.624902074583265 -4.496285265936136" fill="red" stroke="none" /><path d="M 120.64145759157962 103.86396538481128 l 31.172728416807736 5.835360367273868 a52.714199147448184,52.714199147448184 0 0,0 -0.17463477942010283,0.8904589779125659 l -31.06766370441197 -6.371083072254379" fill="red" stroke="none" /><path d="M 120.49622156327973 104.57218783832717 l 30.674396775358762 6.84268090346869 a52.42834547790951,52.42834547790951 0 0,0 -0.20406968040770396,0.8791268421966463 l -30.552066529020507 -7.369676403013901" fill="red" stroke="none" /><path d="M 120.32669344350535 105.2749913415812 l 29.87185273031373 7.75206085275718 a51.86133556744429,51.86133556744429 0 0,0 -0.23167674538412178,0.8621553554390584 l -29.73398790858783 -8.265107141371786" fill="red" stroke="none" /><path d="M 119.79798401119884 107.00284435728193 l 33.044416768832285 11.688306616390532 a56.05067747064303,56.05067747064303 0 0,0 -0.32956661056406367,0.9068257690452278 l -32.83832589726299 -12.255380182441892" fill="red" stroke="none" /><path d="M 119.67450827220406 107.3425965602758 l 20.560522576353616 7.67326025422919 a42.94570599324342,42.94570599324342 0 0,0 -0.2644345453248474,0.6903551547157901 l -20.425393751435262 -8.026038975778123" fill="red" stroke="none" /><path d="M 119.26925614724726 108.34839909993367 l 45.21222860997567 19.588183671918088 a70.27314233378566,70.27314233378566 0 0,0 -0.49043597680783296,1.1058036563850286 l -44.86835154843656 -20.363535664795805" fill="red" stroke="none" /><path d="M 118.97047184881838 109.00673069616215 l 27.819604877676873 13.208089456271573 a51.79584456765125,51.79584456765125 0 0,0 -0.3893240659949615,0.8021228899288657 l -27.588127555067196 -13.685001302165713" fill="red" stroke="none" /><line stroke="#e1ed5e" stroke-width="0.3" x1="174.80103733775053" x2="179.2010983576182" y1="140.37084112569926" y2="142.7455964860345" /><path d="M 175.68104954172406 140.8457921977663 a86.0,86.0 0 0,1 -30.038265399797805,32.042727171017184" fill="none" id="id77" stroke="none" /><text fill="#e1ed5e" style="font-size:6.75px; font-family:Arial;" text-anchor="middle"><textPath startOffset="22.206326154141568" xlink:href="#id77">May</textPath></text><path d="M 116.71984013943494 112.70617746262583 l 26.587328801270417 20.20493708007078 a54.39349540249542,54.39349540249542 0 0,0 -0.5729271605101106,0.7405855863177647 l -26.23559482354224 -20.6596006605018" fill="red" stroke="none" /><path d="M 115.80600337817218 113.82643327865902 l 16.299896281092277 14.258470214603149 a42.65619060765515,42.65619060765515 0 0,0 -0.4881922819173136,0.5484892040249493 l -16.052045149526627 -14.536933588368965" fill="red" stroke="none" /><path d="M 112.92097659922987 116.55440617244103 l 19.217959807631036 24.622125891020723 a52.23426103753689,52.23426103753689 0 0,0 -0.7135480419067127,0.547118211284643 l -18.79128303723083 -24.94928344413274" fill="red" stroke="none" /><path d="M 112.63410532772338 116.77436683061366 l 18.68537785070913 24.80867258155893 a52.0582288722774,52.0582288722774 0 0,0 -0.7204239868416212,0.5329524425603692 l -18.255568893448945 -25.12663497285907" fill="red" stroke="none" /><path d="M 112.34349029814194 116.9893568818739 l 18.390764866395774 25.312716265743596 a52.28823799962372,52.28823799962372 0 0,0 -0.7327142627725126,0.5227721717179115 l -17.95232327577438 -25.625532699305726" fill="red" stroke="none" /><path d="M 112.04921762599082 117.19931262002967 l 8.978755411618074 12.816468758111888 a36.64863956289233,36.64863956289233 0 0,0 -0.5197878562735668,0.3575148272236811 l -8.756810670721624 -12.969124374700664" fill="red" stroke="none" /><path d="M 111.1453310114006 117.79835938074945 l 33.4359930342018 53.39507814224836 a84.0,84.0 0 0,0 -1.2320832002707651,0.7568461326864875 l -32.51193063399873 -53.96271274176323" fill="red" stroke="none" /><line stroke="#e1ed5e" stroke-width="0.3" x1="143.8653032363475" x2="146.44561519142675" y1="172.8068346515853" y2="177.08958963109032" /><path d="M 144.38136562736335 173.6633856474863 a86.0,86.0 0 0,1 -40.68145358897372,12.25698825130547" fill="none" id="id78" stroke="none" /><text fill="#e1ed5e" style="font-size:6.75px; font-family:Arial;" text-anchor="middle"><textPath startOffset="21.466115282336833" xlink:href="#id78">June</textPath></text><path d="M 110.5260780823613 118.17145234162733 l 15.47488343331526 26.714708422307776 a51.87308963099769,51.87308963099769 0 0,0 -0.776493794719585,0.44091344188497966 l -15.012740871674474 -26.977125029987384" fill="red" stroke="none" /><path d="M 108.59647513512805 119.15986991738527 l 4.224712859481006 9.416062694719251 a31.320389305445204,31.320389305445204 0 0,0 -0.4937873028906334,0.21646184251606562 l -4.062004881932618 -9.48738909052977" fill="red" stroke="none" /><path d="M 107.59598834532513 119.57807347666477 l 14.582422579038221 37.58506829409383 a61.314816221153,61.314816221153 0 0,0 -0.9872554891896566,0.3732955499173688 l -13.93329686908829 -37.830512094117836" fill="red" stroke="none" /><path d="M 106.57524785965236 119.94407469862006 l 10.050323911707157 30.484692762747418 a53.09868382923726,53.09868382923726 0 0,0 -0.8705115926748209,0.2787103221244331 l -9.524090973941394 -30.653175931531557" fill="red" stroke="none" /><path d="M 105.53697534728816 120.25689768951611 l 8.855703997834194 32.39839056546015 a54.58689036706664,54.58689036706664 0 0,0 -0.9085066609757523,0.2399448664522434 l -8.296706894046944 -32.54602678121598" fill="red" stroke="none" /><path d="M 104.13013068566511 120.58985236759428 l 7.757183283905352 38.67172028196017 a60.44205676769747,60.44205676769747 0 0,0 -1.0218517902108615,0.19584032762166995 l -7.090363879122786 -38.79951780793031" fill="red" stroke="none" /><line stroke="#e1ed5e" stroke-width="0.3" x1="102.19456741930631" x2="102.32365962044197" y1="184.97166512339345" y2="189.96999836594603" /><path d="M 102.22038585953345 185.97133177190398 a86.0,86.0 0 0,1 -42.740103519485714,-10.115201625700543" fill="none" id="id79" stroke="none" /><text fill="#e1ed5e" style="font-size:6.75px; font-family:Arial;" text-anchor="middle"><textPath startOffset="22.20632615414155" xlink:href="#id79">July</textPath></text><path d="M 99.09653310690486 120.98055641714683 l -1.351200248118542 31.377943401329098 a52.40702268932106,52.40702268932106 0 0,0 -0.9009314518938052,-0.046567865257161944 l 1.8911197684258358 -31.350035729309734" fill="red" stroke="none" /><path d="M 90.10565033884886 118.52300852407294 l -14.664894810575015 27.453847992401634 a52.125117018175615,52.125117018175615 0 0,0 -0.7877772890593642,-0.42955898943387666 l 15.135294911503019 -27.197348351207992" fill="red" stroke="none" /><line stroke="#e1ed5e" stroke-width="0.3" x1="58.666819895761336" x2="56.23545636021788" y1="174.27360380694188" y2="178.64263932499728" /><path d="M 58.180547188652646 175.14741091055294 a86.0,86.0 0 0,1 -31.652253787137756,-30.449443065178592" fill="none" id="id80" stroke="none" /><text fill="#e1ed5e" style="font-size:6.75px; font-family:Arial;" text-anchor="middle"><textPath startOffset="22.20632615414155" xlink:href="#id80">August</textPath></text><path d="M 89.4739219176387 118.17145234162733 l -15.676626243660039 27.062982474120993 a52.275575626645,52.275575626645 0 0,0 -0.774754223595121,-0.457738451447312 l 16.14014833828354 -26.789125450379935" fill="red" stroke="none" /><path d="M 88.54995079064634 117.60387380957326 l -14.59908480089637 22.44535738416671 a47.77549897063975,47.77549897063975 0 0,0 -0.6855222200084128,-0.45432674703744946 l 14.983281719644745 -22.19073261603794" fill="red" stroke="none" /><path d="M 84.9287848128048 114.62390073753433 l -4.692663794669069 4.553385289473329 a27.538685730648783,27.538685730648783 0 0,0 -0.3271772225443171,-0.3430440098004178 l 4.770347568592343 -4.4719341630904115" fill="red" stroke="none" /><path d="M 82.24976979558568 111.22182372390057 l -52.06235908999423 32.91419940080741 a82.59410488197402,82.59410488197402 0 0,0 -0.7493855969042649,-1.2082481917783126 l 52.62120932656645 -32.01315487766384" fill="red" stroke="none" /><line stroke="#e1ed5e" stroke-width="0.3" x1="26.63291911575756" x2="22.317208475507996" y1="142.92168965132927" y2="145.44649492493687" /><path d="M 25.769776987707644 143.4266507060508 a86.0,86.0 0 0,1 -11.730757126820373,-40.83630448921669" fill="none" id="id81" stroke="none" /><text fill="#e1ed5e" style="font-size:6.75px; font-family:Arial;" text-anchor="middle"><textPath startOffset="21.46611528233685" xlink:href="#id81">September</textPath></text><path d="M 81.87401531095188 110.60418214915194 l -27.473126625351405 16.072508276913982 a52.829203711121345,52.829203711121345 0 0,0 -0.4524393729668857,-0.7888661829960159 l 27.745717994470667 -15.59722224805966" fill="red" stroke="none" /><path d="M 81.51974371655577 109.97397251340807 l -27.827005722261337 15.018503312257979 a52.62115888463086,52.62115888463086 0 0,0 -0.42334346704086356,-0.8008062984902529 l 28.081401697527085 -14.5372819986816" fill="red" stroke="none" /><path d="M 81.35079622478065 109.6543875284942 l -9.896287516609068 5.123146056546299 a32.1437485671608,32.1437485671608 0 0,0 -0.25014162613815244,-0.4935531593128026 l 9.983007812533486 -4.952038685530812" fill="red" stroke="none" /><line stroke="#e1ed5e" stroke-width="0.3" x1="15.007084014347285" x2="10.007500721073583" y1="101.09737516637583" y2="101.16192664675087" /><path d="M 14.007167355692545 101.11028546245083 a86.0,86.0 0 0,1 10.666146001902534,-42.60595125391555" fill="none" id="id82" stroke="none" /><text fill="#e1ed5e" style="font-size:6.75px; font-family:Arial;" text-anchor="middle"><textPath startOffset="22.20632615414155" xlink:href="#id82">October</textPath></text><line stroke="#e1ed5e" stroke-width="0.3" x1="26.266209847984243" x2="21.928928074336255" y1="57.711370442889674" y2="55.22380399835377" /><path d="M 25.398753493254645 57.213857153982495 a86.0,86.0 0 0,1 29.58750427330803,-30.492523968695096" fill="none" id="id83" stroke="none" /><text fill="#e1ed5e" style="font-size:6.75px; font-family:Arial;" text-anchor="middle"><textPath startOffset="21.46611528233685" xlink:href="#id83">November</textPath></text><line stroke="#e1ed5e" stroke-width="0.3" x1="56.762969772571076" x2="54.21961505331055" y1="26.818313649435495" y2="22.513508569990535" /><path d="M 56.25429882871897 25.957352633546506 a86.0,86.0 0 0,1 42.265352541879196,-11.944610805530505" fill="none" id="id84" stroke="none" /><text fill="#e1ed5e" style="font-size:6.75px; font-family:Arial;" text-anchor="middle"><textPath startOffset="22.20632615414155" xlink:href="#id84">December</textPath></text></svg>