<?xml version="1.0" encoding="utf-8" ?>
<svg baseProfile="full" height="200mm" version="1.1" viewBox="0,0,200,200" width="200mm" xmlns="http://www.w3.org/2000/svg" xmlns:ev="http://www.w3.org/2001/xml-events" xmlns:xlink="http://www.w3.org/1999/xlink"><defs /><rect fill="#1a1a1a" height="200" width="200" x="0" y="0" /><text alignment-baseline="middle" fill="#e1ed5e" style="dominant-baseline: central; font-size:9.0px; font-family:Arial;" text-anchor="middle" x="100.0" y="100.0">2026</text><line stroke="#e1ed5e" stroke-width="0.3" x1="100.0" x2="100.0" y1="15.0" y2="10.0" /><path d="M 100.0 14.0 a86.0,86.0 0 0,1 42.46469731375804,11.215312516191453" fill="none" id="id85" stroke="none" /><text fill="#e1ed5e" style="font-size:6.75px; font-family:Arial;" text-anchor="middle"><textPath startOffset="22.20632615414155" xlink:href="#id85">January</textPath></text><path d="M 101.44485096284872 79.0497635885617 l 2.0553076728547506 -29.801815378697032 a50.87260433065786,50.87260433065786 0 0,0 0.8730945568312829,0.06776894133048275 l -2.5679924190483745 29.762021175178084" fill="red" stroke="none" /><path d="M 101.80526077348638 79.07773832637324 l 3.4465537381748965 -39.944200993771766 a61.092616847755956,61.092616847755956 0 0,0 1.0469379868481228,0.09941937690070997 l -4.1336168521132635 39.87895607235588" fill="red" stroke="none" /><path d="M 103.95276090670814 79.375362276772 l 5.90359052054955 -30.803637919506535 a52.36425497457868,52.36425497457868 0 0,0 0.8837929002961363,0.17728054150747183 l -6.432949830312811 30.697453421921853" fill="red" stroke="none" /><path d="M 104.307194497241 79.44645832069477 l 7.139916409201587 -34.07103384750374 a55.81111537667432,55.81111537667432 0 0,0 0.9385762603990215,0.2051364172996791 l -7.725335393754136 33.94308393210819" fill="red" stroke="none" /><path d="M 105.71112130821622 79.79150937346287 l 5.697024801025607 -20.158610906241474 a41.9481666322554,41.9481666322554 0 0,0 0.6931630557123974,0.20235330374495972 l -6.043178074461431 20.057559273577812" fill="red" stroke="none" /><path d="M 107.08798089147638 80.2323363322302 l 10.667809244647211 -29.751443810140824 a52.60617918806617,52.60617918806617 0 0,0 0.8497593216269952,0.31297352956913893 l -11.178350892046783 29.56340701276536" fill="red" stroke="none" /><path d="M 109.41281617654863 81.2277094730956 l 14.40041379385366 -28.719221365372857 a53.12733405166852,53.12733405166852 0 0,0 0.813960121594911,0.41694198866355653 l -14.892634403037327 28.4670868513968" fill="red" stroke="none" /><line stroke="#e1ed5e" stroke-width="0.3" x1="143.23703022742887" x2="145.7803849466894" y1="26.81831364943548" y2="22.513508569990506" /><path d="M 143.74570117128098 25.957352633546492 a86.0,86.0 0 0,1 28.547481713284135,27.462654790039103" fill="none" id="id86" stroke="none" /><text fill="#e1ed5e" style="font-size:6.75px; font-family:Arial;" text-anchor="middle"><textPath startOffset="19.985693538727396" xlink:href="#id86">February</textPath></text><path d="M 110.68208982089419 81.91981866633111 l 19.722784907965334 -33.3821877104485 a59.77316985831161,59.77316985831161 0 0,0 0.8813352766928474,0.5309946428797225 l -20.29448225087582 33.03774645811016" fill="red" stroke="none" /><path d="M 111.2981086023043 82.29822771554956 l 33.453146848067306 -52.41408173240528 a83.17997264304333,83.17997264304333 0 0,0 1.2002987859620777,0.7807077188726128 l -34.350412659813664 51.83047508937314" fill="red" stroke="none" /><line stroke="#e1ed5e" stroke-width="0.3" x1="172.23445277983987" x2="176.4835382374775" y1="55.19839476539836" y2="52.563006222186495" /><path d="M 173.08426987136738 54.67131705675599 a86.0,86.0 0 0,1 12.851231095245387,41.99856678651699" fill="none" id="id87" stroke="none" /><text fill="#e1ed5e" style="font-size:6.75px; font-family:Arial;" text-anchor="middle"><textPath startOffset="22.20632615414155" xlink:href="#id87">March</textPath></text><path d="M 118.21658344932153 89.55222093294921 l 26.54562021515786 -15.224741564595428 a51.601678194440865,51.601678194440865 0 0,0 0.43527823755390865,0.7743114149574517 l -26.803756094004203 14.765546639703183" fill="red" stroke="none" /><path d="M 119.47837535516314 92.15188598940014 l 30.227809538957843 -12.179213678083064 a53.58916561282164,53.58916561282164 0 0,0 0.33737301668918085,0.8585775284399263 l -30.432976105528724 11.657087144747354" fill="red" stroke="none" /><path d="M 119.61058180528143 92.48833698450437 l 57.54075226110781 -22.04048533262563 a82.6175394224069,82.6175394224069 0 0,0 0.49726085201325326,1.332411860854103 l -57.91161770162269 21.046750334742192" fill="red" stroke="none" /><path d="M 120.08093135843002 93.85539295169968 l 31.6829861718092 -9.694744564762102 a54.13306030144269,54.13306030144269 0 0,0 0.26497901763261544,0.8933775193313367 l -31.84517108655352 9.147937658684235" fill="red" stroke="none" /><path d="M 120.28053869075195 94.5502522615342 l 29.711816542449988 -7.984102763590045 a51.765856711487345,51.765856711487345 0 0,0 0.22383474634663625,0.8625265856131168 l -29.844847620666926 7.471479752428078" fill="red" stroke="none" /><path d="M 120.37134235888165 94.90015583598534 l 61.11402707664495 -15.299532492043943 a84.0,84.0 0 0,0 0.33906879895672226,1.4056590733623755 l -61.36832867586249 14.245288187022162" fill="red" stroke="none" /><path d="M 120.6074358757038 95.95851677861258 l 29.913874235926087 -5.8666406408051035 a51.48372261078277,51.48372261078277 0 0,0 0.16306678761342025,0.8711092998784505 l -30.01042674744937 5.35085326346409" fill="red" stroke="none" /><path d="M 120.73433829027371 96.67025291283417 l 30.008229173394422 -4.81905003585218 a51.3927139520479,51.3927139520479 0 0,0 0.13275008819326026,0.874657218240083 l -30.086735155026982 4.301793705220015" fill="red" stroke="none" /><path d="M 120.83666639777658 97.38593545837742 l 39.26051736570779 -4.925429258799549 a60.56827109195551,60.56827109195551 0 0,0 0.12087594574508503,1.0355912854478302 l -39.339483664456466 4.248894235026866" fill="red" stroke="none" /><line stroke="#e1ed5e" stroke-width="0.3" x1="184.98032266829074" x2="189.97916517819016" y1="98.17113171792111" y2="98.06355123074" /><path d="M 185.9800911702706 98.14961562048488 a86.0,86.0 0 0,1 -9.607161424134198,41.387399972396054" fill="none" id="id88" stroke="none" /><text fill="#e1ed5e" style="font-size:6.75px; font-family:Arial;" text-anchor="middle"><textPath startOffset="21.466115282336823" xlink:href="#id88">April</textPath></text><path d="M 120.99513854157772 99.54816195383933 l 36.487692852241345 -0.7852545395029518 a57.49614163677188,57.49614163677188 0 0,0 0.012777813513220614,0.9896557382434855 l -36.495803672872285 0.1570625431990035" fill="red" stroke="none" /><path d="M 120.89721153311464 102.0752229133903 l 35.652043270424905 3.540469358159428 a56.8274072831445,56.8274072831445 0 0,0 -0.10504329344733485,0.9725704378720537 l -35.58581767547652 -4.153636117916273" fill="red" stroke="none" /><path d="M 120.5718875245553 104.21870165774334 l 33.12902689841306 6.793809295765144 a54.81846046145508,54.81846046145508 0 0,0 -0.19751864316486228,0.9227413435240719 l -33.00717421652375 -7.363064458705385" fill="red" stroke="none" /><path d="M 120.49622156327973 104.57218783832717 l 35.42056446239431 7.901430688658507 a57.29116963893979,57.29116963893979 0 0,0 -0.2229975134982682,0.9606674517633811 l -35.279306382965494 -8.509966797770453" fill="red" stroke="none" /><path d="M 120.02730092923936 106.31721596034902 l 58.486518923824995 18.448415596103736 a82.32713048752161,82.32713048752161 0 0,0 -0.4379323060501307,1.3478170487276915 l -58.16029436675862 -19.452431544809222" fill="red" stroke="none" /><path d="M 119.79798401119884 107.00284435728193 l 24.80245058972619 8.772999365025267 a47.30830806255968,47.30830806255968 0 0,0 -0.2781632523150927,0.7653858040079649 l -24.64776307640587 -9.198632966039362" fill="red" stroke="none" /><line stroke="#e1ed5e" stroke-width="0.3" x1="174.80103733775053" x2="179.2010983576182" y1="140.37084112569926" y2="142.7455964860345" /><path d="M 175.68104954172406 140.8457921977663 a86.0,86.0 0 0,1 -30.038265399797805,32.042727171017184" fill="none" id="id89" stroke="none" /><text fill="#e1ed5e" style="font-size:6.75px; font-family:Arial;" text-anchor="middle"><textPath startOffset="22.206326154141568" xlink:href="#id89">May</textPath></text><line stroke="#e1ed5e" stroke-width="0.3" x1="143.8653032363475" x2="146.44561519142675" y1="172.8068346515853" y2="177.08958963109032" /><path d="M 144.38136562736335 173.6633856474863 a86.0,86.0 0 0,1 -40.68145358897372,12.25698825130547" fill="none" id="id90" stroke="none" /><text fill="#e1ed5e" style="font-size:6.75px; font-family:Arial;" text-anchor="middle"><textPath startOffset="21.466115282336833" xlink:href="#id90">June</textPath></text><line stroke="#e1ed5e" stroke-width="0.3" x1="102.19456741930631" x2="102.32365962044197" y1="184.97166512339345" y2="189.96999836594603" /><path d="M 102.22038585953345 185.97133177190398 a86.0,86.0 0 0,1 -42.740103519485714,-10.115201625700543" fill="none" id="id91" stroke="none" /><text fill="#e1ed5e" style="font-size:6.75px; font-family:Arial;" text-anchor="middle"><textPath startOffset="22.20632615414155" xlink:href="#id91">July</textPath></text><line stroke="#e1ed5e" stroke-width="0.3" x1="58.666819895761336" x2="56.23545636021788" y1="174.27360380694188" y2="178.64263932499728" /><path d="M 58.180547188652646 175.14741091055294 a86.0,86.0 0 0,1 -31.652253787137756,-30.449443065178592" fill="none" id="id92" stroke="none" /><text fill="#e1ed5e" style="font-size:6.75px; font-family:Arial;" text-anchor="middle"><textPath startOffset="22.20632615414155" xlink:href="#id92">August</textPath></text><line stroke="#e1ed5e" stroke-width="0.3" x1="26.63291911575756" x2="22.317208475507996" y1="142.92168965132927" y2="145.44649492493687" /><path d="M 25.769776987707644 143.4266507060508 a86.0,86.0 0 0,1 -11.730757126820373,-40.83630448921669" fill="none" id="id93" stroke="none" /><text fill="#e1ed5e" style="font-size:6.75px; font-family:Arial;" text-anchor="middle"><textPath startOffset="21.46611528233685" xlink:href="#id93">September</textPath></text><line stroke="#e1ed5e" stroke-width="0.3" x1="15.007084014347285" x2="10.007500721073583" y1="101.09737516637583" y2="101.16192664675087" /><path d="M 14.007167355692545 101.11028546245083 a86.0,86.0 0 0,1 10.666146001902534,-42.60595125391555" fill="none" id="id94" stroke="none" /><text fill="#e1ed5e" style="font-size:6.75px; font-family:Arial;" text-anchor="middle"><textPath startOffset="22.20632615414155" xlink:href="#id94">October</textPath></text><line stroke="#e1ed5e" stroke-width="0.3" x1="26.266209847984243" x2="21.928928074336255" y1="57.711370442889674" y2="55.22380399835377" /><path d="M 25.398753493254645 57.213857153982495 a86.0,86.0 0 0,1 29.58750427330803,-30.492523968695096" fill="none" id="id95" stroke="none" /><text fill="#e1ed5e" style="font-size:6.75px; font-family:Arial;" text-anchor="middle"><textPath startOffset="21.46611528233685" xlink:href="#id95">November</textPath></text><line stroke="#e1ed5e" stroke-width="0.3" x1="56.762969772571076" x2="54.21961505331055" y1="26.818313649435495" y2="22.513508569990535" /><path d="M 56.25429882871897 25.957352633546506 a86.0,86.0 0 0,1 42.265352541879196,-11.944610805530505" fill="none" id="id96" stroke="none" /><text fill="#e1ed5e" style="font-size:6.75px; font-family:Arial;" text-anchor="middle"><textPath startOffset="22.20632615414155" xlink:href="#id96">December</textPath></text></svg>