<?xml version="1.0" encoding="utf-8" ?>
<svg baseProfile="full" height="200mm" version="1.1" viewBox="0,0,200,200" width="200mm" xmlns="http://www.w3.org/2000/svg" xmlns:ev="http://www.w3.org/2001/xml-events" xmlns:xlink="http://www.w3.org/1999/xlink"><defs /><rect fill="#1a1a1a" height="200" width="200" x="0" y="0" /><text alignment-baseline="middle" fill="#e1ed5e" style="dominant-baseline: central; font-size:9.0px; font-family:Arial;" text-anchor="middle" x="100.0" y="100.0">2026</text><line stroke="#e1ed5e" stroke-width="0.3" x1="100.0" x2="100.0" y1="15.0" y2="10.0" /><path d="M 100.0 14.0 a86.0,86.0 0 0,1 42.46469731375804,11.215312516191453" fill="none" id="id85" stroke="none" /><text fill="#e1ed5e" style="font-size:6.75px; font-family:Arial;" text-anchor="middle"><textPath startOffset="22.20632615414155" xlink:href="#id85">January</textPath></text><path d="M 101.44485096284872 79.0497635885617 l 1.9150463225793164 -27.76803575490508 a48.83399382236246,48.83399382236246 0 0,0 0.8381071650570597,0.06505324635574919 l -2.3927436769987174 27.730957246360866" fill="red" stroke="none" /><path d="M 101.80526077348638 79.07773832637324 l 3.211348913370342 -37.218269669203735 a58.35655710866535,58.35655710866535 0 0,0 1.00005040823485,0.09496683634083544 l -3.8515244486954363 37.15747728834772" fill="red" stroke="none" /><path d="M 103.95276090670814 79.375362276772 l 5.500708952586828 -28.701490438110497 a50.22384903379459,50.22384903379459 0 0,0 0.8476675782585174,0.1700341417561104 l -5.99394294031247 28.602552340277178" fill="red" stroke="none" /><path d="M 104.307194497241 79.44645832069477 l 6.652663658854305 -31.745907893931417 a53.43548368327221,53.43548368327221 0 0,0 0.8986252310058581,0.19640466966985567 l -7.1981316140136915 31.62668972616569" fill="red" stroke="none" /><path d="M 105.71112130821622 79.79150937346287 l 5.308239996833927 -18.78291712436634 a40.5185908191345,40.5185908191345 0 0,0 0.6695403513476861,0.19545718856369543 l -5.630770565905039 18.68876160688394" fill="red" stroke="none" /><path d="M 107.08798089147638 80.2323363322302 l 9.939800806350137 -27.721101717534342 a50.44926349679741,50.44926349679741 0 0,0 0.8149181823747654,0.30014124394607317 l -10.41550131449748 27.545897205781944" fill="red" stroke="none" /><path d="M 109.41281617654863 81.2277094730956 l 13.417679427642957 -26.75932172564092 a50.93485293832845,50.93485293832845 0 0,0 0.7803692737674398,0.39973545173071773 l -13.876309188999151 26.524393748597703" fill="red" stroke="none" /><line stroke="#e1ed5e" stroke-width="0.3" x1="143.23703022742887" x2="145.7803849466894" y1="26.81831364943548" y2="22.513508569990506" /><path d="M 143.74570117128098 25.957352633546492 a86.0,86.0 0 0,1 28.547481713284135,27.462654790039103" fill="none" id="id86" stroke="none" /><text fill="#e1ed5e" style="font-size:6.75px; font-family:Arial;" text-anchor="middle"><textPath startOffset="19.985693538727396" xlink:href="#id86">February</textPath></text><path d="M 110.68208982089419 81.91981866633111 l 18.37683340935548 -31.10407101519378 a57.1271537748744,57.1271537748744 0 0,0 0.8423206598913999,0.5074887727943773 l -18.909516135464518 30.783135632940787" fill="red" stroke="none" /><path d="M 111.2981086023043 82.29822771554956 l 31.170187654247414 -48.83716233764482 a78.9365948567438,78.9365948567438 0 0,0 1.139066243519065,0.7408803699736985 l -32.00622092355076 48.29338304351159" fill="red" stroke="none" /><line stroke="#e1ed5e" stroke-width="0.3" x1="172.23445277983987" x2="176.4835382374775" y1="55.19839476539836" y2="52.563006222186495" /><path d="M 173.08426987136738 54.67131705675599 a86.0,86.0 0 0,1 12.851231095245387,41.99856678651699" fill="none" id="id87" stroke="none" /><text fill="#e1ed5e" style="font-size:6.75px; font-family:Arial;" text-anchor="middle"><textPath startOffset="22.20632615414155" xlink:href="#id87">March</textPath></text><path d="M 118.21658344932153 89.55222093294921 l 24.734054684384873 -14.185752201762645 a49.513313147720226,49.513313147720226 0 0,0 0.41766214659112144,0.7429743547909057 l -24.974574472268426 13.757894337036946" fill="red" stroke="none" /><path d="M 119.47837535516314 92.15188598940014 l 28.164958590752136 -11.348061739936382 a51.36516750607825,51.36516750607825 0 0,0 0.3233717359862112,0.8229457962435595 l -28.35612387662005 10.861566938797038" fill="red" stroke="none" /><path d="M 119.61058180528143 92.48833698450437 l 53.61397102314489 -20.53636588894832 a78.41254403695572,78.41254403695572 0 0,0 0.47195170334216424,1.2645959253326393 l -53.95952731498868 19.610446826586347" fill="red" stroke="none" /><path d="M 120.08093135843002 93.85539295169968 l 29.520828904598954 -9.03314144753136 a51.871944927809686,51.871944927809686 0 0,0 0.25391095447263723,0.8560615125848205 l -29.671945756183295 8.52365054820001" fill="red" stroke="none" /><path d="M 120.28053869075195 94.5502522615342 l 27.68417875253621 -7.439239797743416 a49.666287551245745,49.666287551245745 0 0,0 0.21475624247797312,0.827543406852358 l -27.808131326884485 6.961599965342208" fill="red" stroke="none" /><path d="M 120.37134235888165 94.90015583598534 l 56.94339312643273 -14.255439135969258 a79.70066069228514,79.70066069228514 0 0,0 0.32171437258321867,1.3337137720843648 l -57.180340299276764 13.273140132225487" fill="red" stroke="none" /><path d="M 120.6074358757038 95.95851677861258 l 27.87244732563155 -5.466280661261439 a49.40340726370317,49.40340726370317 0 0,0 0.15647770812055314,0.8359101737542382 l -27.962410757661964 4.985692410044638" fill="red" stroke="none" /><path d="M 120.73433829027371 96.67025291283417 l 27.96036315371045 -4.4901812859318 a49.31860935264832,49.31860935264832 0 0,0 0.127392566721457,0.8393578456297461 l -28.033511613871205 4.008224327909971" fill="red" stroke="none" /><path d="M 120.83666639777658 97.38593545837742 l 36.58124299187272 -4.589300820391204 a57.86799453252754,57.86799453252754 0 0,0 0.11548701063087981,0.9894221803565333 l -36.65482035550719 3.958934901709817" fill="red" stroke="none" /><line stroke="#e1ed5e" stroke-width="0.3" x1="184.98032266829074" x2="189.97916517819016" y1="98.17113171792111" y2="98.06355123074" /><path d="M 185.9800911702706 98.14961562048488 a86.0,86.0 0 0,1 -9.607161424134198,41.387399972396054" fill="none" id="id88" stroke="none" /><text fill="#e1ed5e" style="font-size:6.75px; font-family:Arial;" text-anchor="middle"><textPath startOffset="21.466115282336823" xlink:href="#id88">April</textPath></text><path d="M 120.99513854157772 99.54816195383933 l 33.997645675614876 -0.7316660361974506 a55.005517885678195,55.005517885678195 0 0,0 0.012224302878991908,0.9467857296323516 l -34.00520298561158 0.14634404850463623" fill="red" stroke="none" /><path d="M 120.89721153311464 102.0752229133903 l 33.21902373022033 3.298855404519828 a54.38242029225668,54.38242029225668 0 0,0 -0.10052382831180466,0.9307258037068671 l -33.15731760040747 -3.8701775301114862" fill="red" stroke="none" /><path d="M 120.5718875245553 104.21870165774334 l 30.86818677824337 6.33017609966353 a52.51057099497358,52.51057099497358 0 0,0 -0.18920299197443108,0.883893389585205 l -30.754649747544494 -6.8605833086649035" fill="red" stroke="none" /><path d="M 120.49622156327973 104.57218783832717 l 33.003341841844794 7.362209552992888 a54.81453389050103,54.81453389050103 0 0,0 -0.21335757042809936,0.9191388293178439 l -32.87172370548614 -7.929217039659297" fill="red" stroke="none" /><path d="M 120.02730092923936 106.31721596034902 l 54.49519527651373 17.189431495510267 a78.14195361872225,78.14195361872225 0 0,0 -0.41566960666382363,1.2792995053333722 l -54.19123341883367 -18.124929900821435" fill="red" stroke="none" /><path d="M 119.79798401119884 107.00284435728193 l 23.109845022296575 8.174299348888589 a45.51293753918135,45.51293753918135 0 0,0 -0.26760683792730355,0.7363390854123437 l -22.965713923364046 -8.570886231307064" fill="red" stroke="none" /><path d="M 118.81262510543309 109.33194174019688 l 29.874633433521947 14.819215136055123 a54.34820624915218,54.34820624915218 0 0,0 -0.4229360076174597,0.8344928669786871 l -29.615118756118218 -15.331262214736503" fill="red" stroke="none" /><line stroke="#e1ed5e" stroke-width="0.3" x1="174.80103733775053" x2="179.2010983576182" y1="140.37084112569926" y2="142.7455964860345" /><path d="M 175.68104954172406 140.8457921977663 a86.0,86.0 0 0,1 -30.038265399797805,32.042727171017184" fill="none" id="id89" stroke="none" /><text fill="#e1ed5e" style="font-size:6.75px; font-family:Arial;" text-anchor="middle"><textPath startOffset="22.206326154141568" xlink:href="#id89">May</textPath></text><path d="M 117.55443506779139 111.5257021239791 l 28.131510876700077 18.47028476907386 a54.6531324493958,54.6531324493958 0 0,0 -0.5231004715192908,0.7819642297173434 l -27.809407299770065 -18.95178591299701" fill="red" stroke="none" /><path d="M 115.56566222782051 114.09645910891815 l 22.808661130555265 20.65580983643523 a51.77169970228289,51.77169970228289 0 0,0 -0.603888752678143,0.6554019715549531 l -22.4497259698814 -21.045363062791516" fill="red" stroke="none" /><path d="M 114.81725581225074 114.88116024355365 l 23.519120919188595 23.620555089329773 a54.33286173642277,54.33286173642277 0 0,0 -0.6684236865316291,0.6541932618084106 l -23.10904728028117 -24.021898454060757" fill="red" stroke="none" /><path d="M 114.55890576462653 115.13401014063108 l 23.351916575360367 24.274361546685956 a54.683180316618206,54.683180316618206 0 0,0 -0.6839672347962634,0.6467337115821504 l -22.930613506173295 -24.67272989501403" fill="red" stroke="none" /><path d="M 114.29624159901734 115.38237550388516 l 19.63963121279664 21.131720528130046 a49.84899871145702,49.84899871145702 0 0,0 -0.6335581054625522,0.5787403078223489 l -19.272973557867225 -21.466653602538976" fill="red" stroke="none" /><path d="M 114.0293411484842 115.62618273729858 l 19.32446046706645 21.524000832406056 a49.92606755465787,49.92606755465787 0 0,0 -0.6444210666663007,0.5686266657803588 l -18.951097047493562 -21.853450639958705" fill="red" stroke="none" /><path d="M 113.20401910651253 116.32954008644616 l 34.938200396213674 43.208415507128755 a76.56658184163095,76.56658184163095 0 0,0 -1.0319808237389219,0.819867979844464 l -34.189262079757405 -43.80341740097835" fill="red" stroke="none" /><path d="M 112.63410532772338 116.77436683061366 l 18.034527470260606 23.944535173306427 a50.97640648478888,50.97640648478888 0 0,0 -0.7054528513586767,0.5218771544393872 l -17.619689648483362 -24.25142227648558" fill="red" stroke="none" /><path d="M 112.04921762599082 117.19931262002967 l 16.782584990948994 23.955823090863436 a50.24955758535798,50.24955758535798 0 0,0 -0.7126897513116593,0.4901945096042705 l -16.367738355014453 -24.2411583898328" fill="red" stroke="none" /><path d="M 111.7513745106137 117.40417183066458 l 17.08901633194066 25.309394776713322 a51.538499359936765,51.538499359936765 0 0,0 -0.7395168498153862,0.49011144343634244 l -16.65082478338531 -25.59980424124098" fill="red" stroke="none" /><line stroke="#e1ed5e" stroke-width="0.3" x1="143.8653032363475" x2="146.44561519142675" y1="172.8068346515853" y2="177.08958963109032" /><path d="M 144.38136562736335 173.6633856474863 a86.0,86.0 0 0,1 -40.68145358897372,12.25698825130547" fill="none" id="id90" stroke="none" /><text fill="#e1ed5e" style="font-size:6.75px; font-family:Arial;" text-anchor="middle"><textPath startOffset="21.466115282336833" xlink:href="#id90">June</textPath></text><path d="M 110.8373102113329 117.98757091392108 l 15.756400792437603 26.152188234471062 a51.53196874397612,51.53196874397612 0 0,0 -0.7637335401088837,0.4512272373883907 l -15.303899381300337 -26.419534044153203" fill="red" stroke="none" /><path d="M 110.5260780823613 118.17145234162733 l 14.320768893783923 24.72232938162634 a49.57057912893602,49.57057912893602 0 0,0 -0.7420272701719671,0.4213424497258068 l -13.893092856690757 -24.96517499714678" fill="red" stroke="none" /><path d="M 110.21172684928248 118.3499491758327 l 6.830628249722834 12.27428847944831 a35.0469085553594,35.0469085553594 0 0,0 -0.529670918571265,0.2888188167821629 l -6.618334519282921 -12.390047947990244" fill="red" stroke="none" /><path d="M 109.89434966115114 118.52300852407294 l 8.809309451300768 16.491727060983617 a39.69708518627319,39.69708518627319 0 0,0 -0.6054922632544756,0.31676493480308926 l -8.524126285519797 -16.640921414731423" fill="red" stroke="none" /><path d="M 108.2653958097858 119.30500536409082 l 7.4096501273121875 17.306289831207124 a39.825795673249,39.825795673249 0 0,0 -0.6325256907262412,0.2643957900229213 l -7.110652977088485 -17.431270664250018" fill="red" stroke="none" /><path d="M 104.48393922423573 120.51570834832081 l 5.5217325017901695 25.264002904383595 a46.86038229752276,46.86038229752276 0 0,0 -0.7895049227403416,0.1654484327728179 l -5.08603611762045 -25.355307317882954" fill="red" stroke="none" /><path d="M 103.06178313531738 120.77559828337769 l 4.857871570293328 32.962879405955604 a54.31891857376281,54.31891857376281 0 0,0 -0.9261929380435757,0.12836190172356762 l -4.289750041062922 -33.04161587317177" fill="red" stroke="none" /><path d="M 102.70371172650421 120.8252237178851 l 7.609569628963024 58.6123839929028 a80.10429009191739,80.10429009191739 0 0,0 -1.3689158576155322,0.16575664632263717 l -6.599526348296112 -58.734686167950784" fill="red" stroke="none" /><path d="M 101.98527174616119 120.90594882070398 l 2.8077005165091053 29.566553503571413 a50.699566802732264,50.699566802732264 0 0,0 -0.8695112891450629,0.07502509274013139 l -2.298344909622501 -29.610502848590208" fill="red" stroke="none" /><path d="M 101.26447882468166 120.96189622390904 l 1.8234712067157155 30.228591777394048 a51.28354021718822,51.28354021718822 0 0,0 -0.8816176148762914,0.04556956049386299 l -1.3028655234259445 -30.25550114465011" fill="red" stroke="none" /><path d="M 100.90346689309514 120.98055641714683 l 2.7104006792854274 62.94166925144049 a84.0,84.0 0 0,0 -1.4451185933013908,0.04977280629562486 l -1.626561734309384 -62.97899885616221" fill="red" stroke="none" /><line stroke="#e1ed5e" stroke-width="0.3" x1="102.19456741930631" x2="102.32365962044197" y1="184.97166512339345" y2="189.96999836594603" /><path d="M 102.22038585953345 185.97133177190398 a86.0,86.0 0 0,1 -42.740103519485714,-10.115201625700543" fill="none" id="id91" stroke="none" /><text fill="#e1ed5e" style="font-size:6.75px; font-family:Arial;" text-anchor="middle"><textPath startOffset="22.20632615414155" xlink:href="#id91">July</textPath></text><line stroke="#e1ed5e" stroke-width="0.3" x1="58.666819895761336" x2="56.23545636021788" y1="174.27360380694188" y2="178.64263932499728" /><path d="M 58.180547188652646 175.14741091055294 a86.0,86.0 0 0,1 -31.652253787137756,-30.449443065178592" fill="none" id="id92" stroke="none" /><text fill="#e1ed5e" style="font-size:6.75px; font-family:Arial;" text-anchor="middle"><textPath startOffset="22.20632615414155" xlink:href="#id92">August</textPath></text><line stroke="#e1ed5e" stroke-width="0.3" x1="26.63291911575756" x2="22.317208475507996" y1="142.92168965132927" y2="145.44649492493687" /><path d="M 25.769776987707644 143.4266507060508 a86.0,86.0 0 0,1 -11.730757126820373,-40.83630448921669" fill="none" id="id93" stroke="none" /><text fill="#e1ed5e" style="font-size:6.75px; font-family:Arial;" text-anchor="middle"><textPath startOffset="21.46611528233685" xlink:href="#id93">September</textPath></text><line stroke="#e1ed5e" stroke-width="0.3" x1="15.007084014347285" x2="10.007500721073583" y1="101.09737516637583" y2="101.16192664675087" /><path d="M 14.007167355692545 101.11028546245083 a86.0,86.0 0 0,1 10.666146001902534,-42.60595125391555" fill="none" id="id94" stroke="none" /><text fill="#e1ed5e" style="font-size:6.75px; font-family:Arial;" text-anchor="middle"><textPath startOffset="22.20632615414155" xlink:href="#id94">October</textPath></text><line stroke="#e1ed5e" stroke-width="0.3" x1="26.266209847984243" x2="21.928928074336255" y1="57.711370442889674" y2="55.22380399835377" /><path d="M 25.398753493254645 57.213857153982495 a86.0,86.0 0 0,1 29.58750427330803,-30.492523968695096" fill="none" id="id95" stroke="none" /><text fill="#e1ed5e" style="font-size:6.75px; font-family:Arial;" text-anchor="middle"><textPath startOffset="21.46611528233685" xlink:href="#id95">November</textPath></text><line stroke="#e1ed5e" stroke-width="0.3" x1="56.762969772571076" x2="54.21961505331055" y1="26.818313649435495" y2="22.513508569990535" /><path d="M 56.25429882871897 25.957352633546506 a86.0,86.0 0 0,1 42.265352541879196,-11.944610805530505" fill="none" id="id96" stroke="none" /><text fill="#e1ed5e" style="font-size:6.75px; font-family:Arial;" text-anchor="middle"><textPath startOffset="22.20632615414155" xlink:href="#id96">December</textPath></text></svg>