<?xml version="1.0" encoding="utf-8" ?>
<svg baseProfile="full" height="200mm" version="1.1" viewBox="0,0,200,200" width="200mm" xmlns="http://www.w3.org/2000/svg" xmlns:ev="http://www.w3.org/2001/xml-events" xmlns:xlink="http://www.w3.org/1999/xlink"><defs /><rect fill="#1a1a1a" height="200" width="200" x="0" y="0" /><text alignment-baseline="middle" fill="#e1ed5e" style="dominant-baseline: central; font-size:9.0px; font-family:Arial;" text-anchor="middle" x="100.0" y="100.0">2026</text><line stroke="#e1ed5e" stroke-width="0.3" x1="100.0" x2="100.0" y1="15.0" y2="10.0" /><path d="M 100.0 14.0 a86.0,86.0 0 0,1 42.46469731375804,11.215312516191453" fill="none" id="id85" stroke="none" /><text fill="#e1ed5e" style="font-size:6.75px; font-family:Arial;" text-anchor="middle"><textPath startOffset="22.20632615414155" xlink:href="#id85">January</textPath></text><path d="M 101.44485096284872 79.0497635885617 l 2.0412717610662194 -29.598295653977434 a50.6686011807565,50.6686011807565 0 0,0 0.8695933788967384,0.06749718253852 l -2.550455329325299 29.558773209250447" fill="red" stroke="none" /><path d="M 101.80526077348638 79.07773832637324 l 3.4230168610044513 -39.671417853312214 a60.818820159854305,60.818820159854305 0 0,0 1.042245960740422,0.0989738124853487 l -4.1053879488351175 39.60661849631168" fill="red" stroke="none" /><path d="M 103.95276090670814 79.375362276772 l 5.863274281342917 -30.593276643521268 a52.150065185891364,52.150065185891364 0 0,0 0.8801778500170925,0.1765553964301229 l -6.389018540827135 30.487817291013936" fill="red" stroke="none" /><path d="M 104.307194497241 79.44645832069477 l 7.091157170757328 -33.83835918183512 a55.573386616576464,55.573386616576464 0 0,0 0.9345783727177587,0.20426263389996674 l -7.672578267628615 33.71128304983929" fill="red" stroke="none" /><path d="M 105.71112130821622 79.79150937346287 l 5.658119220795274 -20.020945636853206 a41.80510940395566,41.80510940395566 0 0,0 0.6907991386816649,0.20166321154081582 l -6.001908577200366 19.920584096393686" fill="red" stroke="none" /><path d="M 107.08798089147638 80.2323363322302 l 10.594957655801261 -29.548268078149054 a52.390337273536645,52.390337273536645 0 0,0 0.846272779139019,0.3116894065466749 l -11.102012760712856 29.36151540379605" fill="red" stroke="none" /><path d="M 109.41281617654863 81.2277094730956 l 14.302071856829636 -28.52309478878115 a52.90793311588378,52.90793311588378 0 0,0 0.81059869539958,0.4152201356078062 l -14.790931039817972 28.272682127860843" fill="red" stroke="none" /><line stroke="#e1ed5e" stroke-width="0.3" x1="143.23703022742887" x2="145.7803849466894" y1="26.81831364943548" y2="22.513508569990506" /><path d="M 143.74570117128098 25.957352633546492 a86.0,86.0 0 0,1 28.547481713284135,27.462654790039103" fill="none" id="id86" stroke="none" /><text fill="#e1ed5e" style="font-size:6.75px; font-family:Arial;" text-anchor="middle"><textPath startOffset="19.985693538727396" xlink:href="#id86">February</textPath></text><path d="M 110.68208982089419 81.91981866633111 l 19.588095940056277 -33.15421724733957 a59.508383812367896,59.508383812367896 0 0,0 0.8774310955423515,0.5286424174207298 l -20.155889101816268 32.812128220460224" fill="red" stroke="none" /><path d="M 111.2981086023043 82.29822771554956 l 33.224691797560894 -52.056140467752165 a82.75533908449742,82.75533908449742 0 0,0 1.1941712635716981,0.7767222078617858 l -34.11583008691687 51.47651933573085" fill="red" stroke="none" /><line stroke="#e1ed5e" stroke-width="0.3" x1="172.23445277983987" x2="176.4835382374775" y1="55.19839476539836" y2="52.563006222186495" /><path d="M 173.08426987136738 54.67131705675599 a86.0,86.0 0 0,1 12.851231095245387,41.99856678651699" fill="none" id="id87" stroke="none" /><text fill="#e1ed5e" style="font-size:6.75px; font-family:Arial;" text-anchor="middle"><textPath startOffset="22.20632615414155" xlink:href="#id87">March</textPath></text><path d="M 118.21658344932153 89.55222093294921 l 26.364337388925673 -15.120770206717394 a51.392696122612364,51.392696122612364 0 0,0 0.4335154005476565,0.7711755246259683 l -26.62071043076576 14.664711172156633" fill="red" stroke="none" /><path d="M 119.47837535516314 92.15188598940014 l 30.021380655412624 -12.096040549749532 a53.36661078083969,53.36661078083969 0 0,0 0.33597191267522813,0.8550118715501369 l -30.225146117969555 11.57747967330361" fill="red" stroke="none" /><path d="M 119.61058180528143 92.48833698450437 l 57.14780042540487 -21.88996854528962 a82.19674677934827,82.19674677934827 0 0,0 0.49472817300016353,1.325625540267806 l -57.51613318690665 20.90301986799248" fill="red" stroke="none" /><path d="M 120.08093135843002 93.85539295169968 l 31.466619734327324 -9.628538136731628 a53.906791155554096,53.906791155554096 0 0,0 0.2638714398296193,0.8896433175860534 l -31.627697071268646 9.085465432399044" fill="red" stroke="none" /><path d="M 120.28053869075195 94.5502522615342 l 29.508911429227883 -7.929578487940032 a51.555753447336514,51.555753447336514 0 0,0 0.222926263152783,0.8590258292735821 l -29.641034024250967 7.420456233117599" fill="red" stroke="none" /><path d="M 120.37134235888165 94.90015583598534 l 60.69667297223574 -15.195050379073567 a83.56976638857712,83.56976638857712 0 0,0 0.3373321466484369,1.3984595283675894 l -60.94923791914499 14.148005619046572" fill="red" stroke="none" /><path d="M 120.6074358757038 95.95851677861258 l 29.709589249510657 -5.826576736204885 a51.27554607001372,51.27554607001372 0 0,0 0.16240742037969627,0.8675869337502004 l -29.80548239380021 5.3143117249921215" fill="red" stroke="none" /><path d="M 120.73433829027371 96.67025291283417 l 29.803299827209102 -4.786140237430716 a51.185158918960084,51.185158918960084 0 0,0 0.13221396260602097,0.8711248204756509 l -29.881269683254423 4.272416304562983" fill="red" stroke="none" /><path d="M 120.83666639777658 97.38593545837742 l 38.99240317249225 -4.891792985500799 a60.29805521624675,60.29805521624675 0 0,0 0.12033667660395264,1.0309711567727224 l -39.07083020209979 4.219878090403224" fill="red" stroke="none" /><line stroke="#e1ed5e" stroke-width="0.3" x1="184.98032266829074" x2="189.97916517819016" y1="98.17113171792111" y2="98.06355123074" /><path d="M 185.9800911702706 98.14961562048488 a86.0,86.0 0 0,1 -9.607161424134198,41.387399972396054" fill="none" id="id88" stroke="none" /><text fill="#e1ed5e" style="font-size:6.75px; font-family:Arial;" text-anchor="middle"><textPath startOffset="21.466115282336823" xlink:href="#id88">April</textPath></text><path d="M 120.99513854157772 99.54816195383933 l 36.2385145686174 -0.7798919538455459 a57.24690565551173,57.24690565551173 0 0,0 0.012722423867956315,0.9853657491762348 l -36.24656999960307 0.15598994660884843" fill="red" stroke="none" /><path d="M 120.89721153311464 102.0752229133903 l 35.408571725490944 3.516291121364301 a56.58273815896441,56.58273815896441 0 0,0 -0.1045910319095051,0.9683830577219797 l -35.34279839208038 -4.125270500971072" fill="red" stroke="none" /><path d="M 120.5718875245553 104.21870165774334 l 32.90278529705702 6.747413659120138 a54.587510645945656,54.587510645945656 0 0,0 -0.19668649841262736,0.9188538402768829 l -32.78176475991995 -7.312781318813189" fill="red" stroke="none" /><path d="M 120.49622156327973 104.57218783832717 l 35.17867371053252 7.8474709892840755 a57.04333343296326,57.04333343296326 0 0,0 -0.22203284724977104,0.9565116948125166 l -35.0383802973522 -8.451851341445158" fill="red" stroke="none" /><path d="M 120.02730092923936 106.31721596034902 l 58.08710834833056 18.322429429961804 a81.90832107755577,81.90832107755577 0 0,0 -0.43570448431486886,1.340960518449315 l -57.763111612999445 -19.319588848388914" fill="red" stroke="none" /><path d="M 119.79798401119884 107.00284435728193 l 24.633072051799918 8.713087631694705 a47.1286458659219,47.1286458659219 0 0,0 -0.27710687505322246,0.7624791074792788 l -24.479440915741467 -9.135814536180115" fill="red" stroke="none" /><path d="M 118.81262510543309 109.33194174019688 l 31.843744394609747 15.79598624938303 a56.54626898367728,56.54626898367728 0 0,0 -0.44004126171123703,0.8682431560815861 l -31.567124463112243 -16.341783617167312" fill="red" stroke="none" /><line stroke="#e1ed5e" stroke-width="0.3" x1="174.80103733775053" x2="179.2010983576182" y1="140.37084112569926" y2="142.7455964860345" /><path d="M 175.68104954172406 140.8457921977663 a86.0,86.0 0 0,1 -30.038265399797805,32.042727171017184" fill="none" id="id89" stroke="none" /><text fill="#e1ed5e" style="font-size:6.75px; font-family:Arial;" text-anchor="middle"><textPath startOffset="22.206326154141568" xlink:href="#id89">May</textPath></text><path d="M 117.55443506779139 111.5257021239791 l 29.985728319820698 19.687706909972366 a56.871293623774854,56.871293623774854 0 0,0 -0.5443311147454193,0.8137011607289053 l -29.642394099664557 -20.20094498490708" fill="red" stroke="none" /><path d="M 115.56566222782051 114.09645910891815 l 24.312036385011698 22.017285338706348 a53.79993851933485,53.79993851933485 0 0,0 -0.6275470566628757,0.6810783879585954 l -23.9294429203531 -22.43251498146628" fill="red" stroke="none" /><path d="M 114.81725581225074 114.88116024355365 l 25.06932433507914 25.177444282192223 a56.529913076171255,56.529913076171255 0 0,0 -0.6954526540676693,0.680646795385993 l -24.632221728635677 -25.605241180500787" fill="red" stroke="none" /><path d="M 114.55890576462653 115.13401014063108 l 24.891099139500337 25.874344739830445 a56.90332202022573,56.90332202022573 0 0,0 -0.7117363618492273,0.6729911544722462 l -24.442026943260302 -26.29897053104861" fill="red" stroke="none" /><path d="M 114.29624159901734 115.38237550388516 l 20.934127869262593 22.52456448088276 a51.75050755191013,51.75050755191013 0 0,0 -0.6577254181392035,0.6008165749510169 l -20.543302901656528 -22.88157382242036" fill="red" stroke="none" /><path d="M 114.0293411484842 115.62618273729858 l 20.598183440353573 22.94270095001139 a51.832656193135705,51.832656193135705 0 0,0 -0.6690303728720547,0.5903415172319674 l -20.200210714574933 -23.293865609015644" fill="red" stroke="none" /><path d="M 113.20401910651253 116.32954008644616 l 37.24106357657558 46.05638901534438 a80.22911265118935,80.22911265118935 0 0,0 -1.0813452000883201,0.859086025938799 l -36.44276088376991 -46.690608955288305" fill="red" stroke="none" /><path d="M 112.63410532772338 116.77436683061366 l 19.223227770090283 25.522778694614516 a52.95222555934154,52.95222555934154 0 0,0 -0.732795837968138,0.5421048422545786 l -18.78104696170358 -25.849893485608867" fill="red" stroke="none" /><path d="M 112.04921762599082 117.19931262002967 l 17.88876666626903 25.534810626729524 a52.17746825165823,52.17746825165823 0 0,0 -0.7400333188840232,0.5090016647125032 l -17.446576462762124 -25.83895308080712" fill="red" stroke="none" /><path d="M 111.7513745106137 117.40417183066458 l 18.215395654663144 26.977599569392158 a53.551367365786476,53.551367365786476 0 0,0 -0.7683991383039268,0.5092530493434928 l -17.748321817619253 -27.28715063982697" fill="red" stroke="none" /><line stroke="#e1ed5e" stroke-width="0.3" x1="143.8653032363475" x2="146.44561519142675" y1="172.8068346515853" y2="177.08958963109032" /><path d="M 144.38136562736335 173.6633856474863 a86.0,86.0 0 0,1 -40.68145358897372,12.25698825130547" fill="none" id="id90" stroke="none" /><text fill="#e1ed5e" style="font-size:6.75px; font-family:Arial;" text-anchor="middle"><textPath startOffset="21.466115282336833" xlink:href="#id90">June</textPath></text><path d="M 110.8373102113329 117.98757091392108 l 16.794944129771658 27.87594362793958 a53.54440630077951,53.54440630077951 0 0,0 -0.7935590270244246,0.4688486607748043 l -16.31261723171885 -28.160910861008137" fill="red" stroke="none" /><path d="M 110.5260780823613 118.17145234162733 l 15.264686182767731 26.351839242468987 a51.4537366462526,51.4537366462526 0 0,0 -0.7702164552981615,0.43734900473300004 l -14.80882096054837 -26.610691412996616" fill="red" stroke="none" /><path d="M 110.21172684928248 118.3499491758327 l 7.280851847865895 13.083317183958377 a35.97277503225881,35.97277503225881 0 0,0 -0.5436637232866658,0.2964488095940529 l -7.05456531271058 -13.2067066453122" fill="red" stroke="none" /><path d="M 109.89434966115114 118.52300852407294 l 9.389952820156516 17.57873757093058 a40.92945630348233,40.92945630348233 0 0,0 -0.6242893908880791,0.3265987035738742 l -9.085972526741942 -17.73776569344917" fill="red" stroke="none" /><path d="M 108.2653958097858 119.30500536409082 l 7.8980384891638264 18.446990187521916 a41.06665041691919,41.06665041691919 0 0,0 -0.6522333322325256,0.2726335857708852 l -7.57933369743384 -18.580208816312773" fill="red" stroke="none" /><path d="M 104.48393922423573 120.51570834832081 l 5.885683544659515 26.929215806515955 a48.5649040401338,48.5649040401338 0 0,0 -0.818222748774392,0.17146653243644563 l -5.421269334455745 -27.02653831967894" fill="red" stroke="none" /><path d="M 103.06178313531738 120.77559828337769 l 5.178065897628165 35.13554429544176 a56.51505088518289,56.51505088518289 0 0,0 -0.9636392328383524,0.1335516169707084 l -4.572498073602982 -35.21947047790507" fill="red" stroke="none" /><path d="M 102.70371172650421 120.8252237178851 l 8.111135179512624 62.47567115365527 a84.0,84.0 0 0,0 -1.4354903077944787,0.1738178850985963 l -7.034517448666764 -62.60603456747921" fill="red" stroke="none" /><path d="M 101.98527174616119 120.90594882070398 l 2.9927630001982375 31.515358154681998 a52.657138689294655,52.657138689294655 0 0,0 -0.9030841766867228,0.0779219027445692 l -2.449834505769973 -31.56220430970523" fill="red" stroke="none" /><line stroke="#e1ed5e" stroke-width="0.3" x1="102.19456741930631" x2="102.32365962044197" y1="184.97166512339345" y2="189.96999836594603" /><path d="M 102.22038585953345 185.97133177190398 a86.0,86.0 0 0,1 -42.740103519485714,-10.115201625700543" fill="none" id="id91" stroke="none" /><text fill="#e1ed5e" style="font-size:6.75px; font-family:Arial;" text-anchor="middle"><textPath startOffset="22.20632615414155" xlink:href="#id91">July</textPath></text><line stroke="#e1ed5e" stroke-width="0.3" x1="58.666819895761336" x2="56.23545636021788" y1="174.27360380694188" y2="178.64263932499728" /><path d="M 58.180547188652646 175.14741091055294 a86.0,86.0 0 0,1 -31.652253787137756,-30.449443065178592" fill="none" id="id92" stroke="none" /><text fill="#e1ed5e" style="font-size:6.75px; font-family:Arial;" text-anchor="middle"><textPath startOffset="22.20632615414155" xlink:href="#id92">August</textPath></text><line stroke="#e1ed5e" stroke-width="0.3" x1="26.63291911575756" x2="22.317208475507996" y1="142.92168965132927" y2="145.44649492493687" /><path d="M 25.769776987707644 143.4266507060508 a86.0,86.0 0 0,1 -11.730757126820373,-40.83630448921669" fill="none" id="id93" stroke="none" /><text fill="#e1ed5e" style="font-size:6.75px; font-family:Arial;" text-anchor="middle"><textPath startOffset="21.46611528233685" xlink:href="#id93">September</textPath></text><line stroke="#e1ed5e" stroke-width="0.3" x1="15.007084014347285" x2="10.007500721073583" y1="101.09737516637583" y2="101.16192664675087" /><path d="M 14.007167355692545 101.11028546245083 a86.0,86.0 0 0,1 10.666146001902534,-42.60595125391555" fill="none" id="id94" stroke="none" /><text fill="#e1ed5e" style="font-size:6.75px; font-family:Arial;" text-anchor="middle"><textPath startOffset="22.20632615414155" xlink:href="#id94">October</textPath></text><line stroke="#e1ed5e" stroke-width="0.3" x1="26.266209847984243" x2="21.928928074336255" y1="57.711370442889674" y2="55.22380399835377" /><path d="M 25.398753493254645 57.213857153982495 a86.0,86.0 0 0,1 29.58750427330803,-30.492523968695096" fill="none" id="id95" stroke="none" /><text fill="#e1ed5e" style="font-size:6.75px; font-family:Arial;" text-anchor="middle"><textPath startOffset="21.46611528233685" xlink:href="#id95">November</textPath></text><line stroke="#e1ed5e" stroke-width="0.3" x1="56.762969772571076" x2="54.21961505331055" y1="26.818313649435495" y2="22.513508569990535" /><path d="M 56.25429882871897 25.957352633546506 a86.0,86.0 0 0,1 42.265352541879196,-11.944610805530505" fill="none" id="id96" stroke="none" /><text fill="#e1ed5e" style="font-size:6.75px; font-family:Arial;" text-anchor="middle"><textPath startOffset="22.20632615414155" xlink:href="#id96">December</textPath></text></svg>